<?xml version="1.0" encoding="UTF-8" standalone="no"?>
<svg
   xmlns:dc="http://purl.org/dc/elements/1.1/"
   xmlns:cc="http://creativecommons.org/ns#"
   xmlns:rdf="http://www.w3.org/1999/02/22-rdf-syntax-ns#"
   xmlns:svg="http://www.w3.org/2000/svg"
   xmlns="http://www.w3.org/2000/svg"
   xmlns:sodipodi="http://sodipodi.sourceforge.net/DTD/sodipodi-0.dtd"
   xmlns:inkscape="http://www.inkscape.org/namespaces/inkscape"
   width="63.611mm"
   height="23.813mm"
   viewBox="0 0 63.611 23.813"
   version="1.1"
   id="svg969"
   sodipodi:docname="vtally-logo.svg"
   inkscape:export-filename="/home/christian/projects/wifi-tally/documentation/favicon.png"
   inkscape:export-xdpi="299.96201"
   inkscape:export-ydpi="299.96201"
   inkscape:version="1.0.2 (e86c870879, 2021-01-15)">
  <defs
     id="defs963" />
  <sodipodi:namedview
     id="base"
     pagecolor="#ffffff"
     bordercolor="#666666"
     borderopacity="1.0"
     inkscape:pageopacity="0.0"
     inkscape:pageshadow="2"
     inkscape:zoom="1.979899"
     inkscape:cx="130.66183"
     inkscape:cy="149.75378"
     inkscape:document-units="mm"
     inkscape:current-layer="layer1"
     inkscape:document-rotation="0"
     showgrid="false"
     inkscape:window-width="1530"
     inkscape:window-height="974"
     inkscape:window-x="2119"
     inkscape:window-y="83"
     inkscape:window-maximized="0"
     units="px" />
  <metadata
     id="metadata966">
    <rdf:RDF>
      <cc:Work
         rdf:about="">
        <dc:format>image/svg+xml</dc:format>
        <dc:type
           rdf:resource="http://purl.org/dc/dcmitype/StillImage" />
        <dc:title></dc:title>
      </cc:Work>
    </rdf:RDF>
  </metadata>
  <g
     inkscape:label="Layer 1"
     inkscape:groupmode="layer"
     id="layer1">
    <path
       style="fill:#000000;stroke:none;stroke-width:0.264583px;stroke-linecap:butt;stroke-linejoin:miter;stroke-opacity:1"
       d="m 0.44106,7.9375 h 6.61459 l 1.32291,3.96875 H 11.0244 L 14.99314,0 h 6.61459 l -7.9375,23.8125 h -7.9375 z"
       id="path833-0-7-6-0-7-85-3"
       sodipodi:nodetypes="ccccccccc" />
    <path
       id="path1037"
       style="fill:#000000;fill-opacity:1;stroke:none;stroke-width:7.50001;stroke-linejoin:round"
       d="M 4.52273,0.33946 A 6.6145835,6.6145835 0 0 0 0,6.61453 H 2.64584 A 3.9687473,3.9687473 0 0 1 5.35937,2.849385 Z" />
    <path
       id="path1037-2"
       style="fill:#000000;fill-opacity:1;stroke:none;stroke-width:3.00001;stroke-linejoin:round"
       d="M 3.96876,6.614532 A 2.6458316,2.6458316 0 0 1 5.77791,4.104476 l 0.83668,2.510056 z" />
    <g
       id="g948"
       transform="translate(-213.60685,-87.3125)">
      <path
         d="m 239.41113,107.09061 2.68262,-9.194777 h 3.97733 l 0.78389,-2.658528 h -10.61718 l -0.78389,2.658528 h 3.99401 l -2.68261,9.194777 z"
         style="font-style:italic;font-variant:normal;font-weight:800;font-stretch:normal;font-size:16.9333px;line-height:1.25;font-family:Montserrat;-inkscape-font-specification:'Montserrat, Ultra-Bold Italic';font-variant-ligatures:normal;font-variant-caps:normal;font-variant-numeric:normal;font-variant-east-asian:normal;stroke-width:0.512154"
         id="path925"
         sodipodi:nodetypes="ccccccccc" />
      <path
         d="m 252.40396,99.013431 c -0.49557,-0.880532 -1.46072,-1.253065 -2.69685,-1.253065 -2.7432,0 -5.18341,2.252124 -5.46089,5.300124 -0.24357,2.67546 1.51577,4.18252 3.49696,4.18252 1.0668,0 1.9797,-0.3556 2.75102,-1.016 l -0.26479,0.8636 h 2.64584 l 2.49476,-9.177843 h -2.64584 z m -3.57191,5.638789 c -1.10066,0 -2.05288,-0.67733 -1.95577,-1.74413 0.14028,-1.54093 1.51905,-2.57386 2.78905,-2.57386 1.10066,0 1.94559,0.69426 1.84848,1.76106 -0.13874,1.524 -1.39483,2.55693 -2.68176,2.55693 z"
         style="font-style:italic;font-variant:normal;font-weight:800;font-stretch:normal;font-size:16.9333px;line-height:1.25;font-family:Montserrat;-inkscape-font-specification:'Montserrat, Ultra-Bold Italic';font-variant-ligatures:normal;font-variant-caps:normal;font-variant-numeric:normal;font-variant-east-asian:normal;stroke-width:0.512154"
         id="path927"
         sodipodi:nodetypes="csssccccccsssss" />
      <path
         d="M 257.45994,107.09061 260.87916,95.25 h -2.64583 l -3.41922,11.84061 z"
         style="font-style:italic;font-variant:normal;font-weight:800;font-stretch:normal;font-size:16.9333px;line-height:1.25;font-family:Montserrat;-inkscape-font-specification:'Montserrat, Ultra-Bold Italic';font-variant-ligatures:normal;font-variant-caps:normal;font-variant-numeric:normal;font-variant-east-asian:normal;stroke-width:0.512154"
         id="path929"
         sodipodi:nodetypes="ccccc" />
      <path
         d="M 262.23064,107.09061 265.64166,95.25 h -2.64583 l -3.41102,11.84061 z"
         style="font-style:italic;font-variant:normal;font-weight:800;font-stretch:normal;font-size:16.9333px;line-height:1.25;font-family:Montserrat;-inkscape-font-specification:'Montserrat, Ultra-Bold Italic';font-variant-ligatures:normal;font-variant-caps:normal;font-variant-numeric:normal;font-variant-east-asian:normal;stroke-width:0.512154"
         id="path931"
         sodipodi:nodetypes="ccccc" />
      <path
         id="path934"
         style="font-style:italic;font-variant:normal;font-weight:800;font-stretch:normal;font-size:16.9333px;line-height:1.25;font-family:Montserrat;-inkscape-font-specification:'Montserrat, Ultra-Bold Italic';font-variant-ligatures:normal;font-variant-caps:normal;font-variant-numeric:normal;font-variant-east-asian:normal;stroke-width:1.9357"
         d="m 1022.248,406.28711 25.5059,-36.22266 h -11.9043 l -14.7402,21.31055 -2.4121,-21.31055 h -12.0957 l 4.6914,34.94336 c -0.293,1.9922 -5.293,4.9922 -11.293,4.9922 L 877.33203,410 874,420 l 127,10e-6 c 5,0.0322 12,-1 21.248,-13.71287 z"
         transform="scale(0.26458333)"
         sodipodi:nodetypes="ccccccccccccc" />
    </g>
  </g>
</svg>
