<?xml version="1.0" encoding="UTF-8" standalone="no"?>
<svg
   xmlns:dc="http://purl.org/dc/elements/1.1/"
   xmlns:cc="http://creativecommons.org/ns#"
   xmlns:rdf="http://www.w3.org/1999/02/22-rdf-syntax-ns#"
   xmlns:svg="http://www.w3.org/2000/svg"
   xmlns="http://www.w3.org/2000/svg"
   xmlns:sodipodi="http://sodipodi.sourceforge.net/DTD/sodipodi-0.dtd"
   xmlns:inkscape="http://www.inkscape.org/namespaces/inkscape"
   width="63.611366mm"
   height="23.812685mm"
   viewBox="0 0 63.611366 23.812685">
  <path
     id="path2"
     style="fill:#fff"
     d="M 56.666016 0 L 41.667969 45 L 31.667969 45 L 26.667969 30 L 1.6679688 30 L 21.667969 90 L 51.667969 90 L 81.667969 0 L 56.666016 0 z M 17.09375 1.2832031 A 25.000001 25.000001 0 0 0 0 25 L 10 25 A 14.99999 14.99999 0 0 1 20.255859 10.769531 L 17.09375 1.2832031 z M 21.837891 15.513672 A 9.9999937 9.9999937 0 0 0 15 25 L 25 25 L 21.837891 15.513672 z M 85.535156 29.951172 L 82.572266 40 L 97.667969 40 L 87.527344 74.751953 L 97.527344 74.751953 L 107.66797 40 L 122.69922 40 L 125.66211 29.951172 L 85.535156 29.951172 z M 168.66797 30 L 155.74414 74.751953 L 165.74414 74.751953 L 178.66797 30 L 168.66797 30 z M 186.66797 30 L 173.77539 74.751953 L 183.77539 74.751953 L 196.66797 30 L 186.66797 30 z M 136.44141 39.488281 C 126.07341 39.488281 116.85148 47.999531 115.80273 59.519531 C 114.88215 69.631506 121.53157 75.328125 129.01953 75.328125 C 133.05153 75.328125 136.50079 73.984281 139.41602 71.488281 L 138.41602 74.751953 L 148.41602 74.751953 L 157.8457 40.064453 L 147.8457 40.064453 L 146.63477 44.224609 C 144.76175 40.896614 141.11339 39.488281 136.44141 39.488281 z M 199.26953 40.064453 L 203.96094 75.007812 C 203.66795 77.000013 198.66797 80 192.66797 80 L 70 80 L 66.667969 90 L 193.66797 90 C 198.66797 90.032126 205.66606 88.999981 214.91406 76.287109 L 240.42188 40.064453 L 228.51758 40.064453 L 213.77734 61.375 L 211.36523 40.064453 L 199.26953 40.064453 z M 136.2832 49.216797 C 140.44318 49.216797 143.63656 51.839094 143.26953 55.871094 C 142.74516 61.631094 137.99875 65.535156 133.13477 65.535156 C 128.97479 65.535156 125.37516 62.975359 125.74219 58.943359 C 126.27238 53.119372 131.4832 49.216797 136.2832 49.216797 z "
     transform="scale(0.26458333)" />
</svg>
